<svg xmlns="http://www.w3.org/2000/svg" width="32.5" height="44.474" viewBox="0 0 32.5 44.474"><g transform="translate(-5 -2)"><path d="M25.615,29.811l-5.5-5.345A4.494,4.494,0,0,1,19,21.509V18.234c0-8.178,5.221-15.769,5.221-15.769l1.394.883Z" transform="translate(10.231 0.304)"/><circle cx="1.5" cy="1.5" r="1.5" transform="translate(34.288 2.5)"/><path d="M25.962,3H22.654L21,20.128V43.251a2.527,2.527,0,0,0,2.481,2.569h0a2.527,2.527,0,0,0,2.481-2.569Z" transform="translate(11.538 0.654)"/><path d="M18.375,2.761a.9.9,0,0,0-1.8.176V12.87a1.065,1.065,0,0,1-2.127.121L13.359,2.833a.918.918,0,0,0-.9-.833h-.03a.918.918,0,0,0-.9.835L10.435,12.994a1.065,1.065,0,0,1-2.127-.123V2.937a.9.9,0,0,0-1.8-.176A88.645,88.645,0,0,0,5,13.974c0,6.842,4.962,8.553,4.962,8.553V43.908a2.482,2.482,0,1,0,4.962,0V22.526s4.962-1.711,4.962-8.553A88.644,88.644,0,0,0,18.375,2.761Z"/></g></svg>